# xmcd CD database file
#
# Track frame offsets:
#	150
#	18435
#	36348
#	48999
#	63383
#	78995
#	98100
#	116073
#	130731
#	147299
#	160727
#	173796
#	185887
#	203257
#	215843
#	233999
#	248445
#
# Disc length: 3451 seconds
#
# Revision: 0
# Processed by: cddbd v1.4PL0 Copyright (c) Steve Scherf et al.
# Submitted via: CDex 1.50Beta6
#
DISCID=e90d7911
DTITLE=Leon Rausch and Tommy Allsup - A Tribute to Bob Wills 1
DYEAR=1997
DGENRE=Country
TTITLE0=Faded Love
TTITLE1=Convict and The Rose
TTITLE2=Rosetta
TTITLE3=Mexicali Rose
TTITLE4=Lilly Dale
TTITLE5=South of the Border
TTITLE6=I Don't Know Why
TTITLE7=Old Fashion Love
TTITLE8=I wonder If You Feel The Way I Do
TTITLE9=Cherokee Maiden
TTITLE10=My Mary
TTITLE11=I Wish Your Picture Was You
TTITLE12=You Don't Love Me, But I'll Always Care
TTITLE13=Dusty Skies
TTITLE14=Bring It On Down To My House
TTITLE15=Yearning
TTITLE16=Why Do I?
EXTD=YEAR: 1997
EXTT0=
EXTT1=
EXTT2=
EXTT3=
EXTT4=
EXTT5=
EXTT6=
EXTT7=
EXTT8=
EXTT9=
EXTT10=
EXTT11=
EXTT12=
EXTT13=
EXTT14=
EXTT15=
EXTT16=
PLAYORDER=
